<?xml version="1.0" encoding="utf-8"?>
<svg version="1.1" xmlns:xlink="http://www.w3.org/1999/xlink" width="9px" height="11px" xmlns="http://www.w3.org/2000/svg">
  <g transform="matrix(1 0 0 1 -45 -320 )">
    <path d="M 8.703125 5.0166015625  C 8.90104166666667 5.15266927083333  9 5.31380208333333  9 5.5  C 9 5.68619791666667  8.90104166666667 5.84733072916667  8.703125 5.9833984375  L 1.703125 10.7958984375  C 1.50520833333333 10.9319661458333  1.27083333333333 11  1 11  C 0.729166666666667 11  0.494791666666667 10.9319661458333  0.296875 10.7958984375  C 0.0989583333333333 10.6598307291667  0 10.4986979166667  0 10.3125  L 0 0.6875  C 0 0.501302083333332  0.0989583333333333 0.340169270833332  0.296875 0.2041015625  C 0.494791666666667 0.0680338541666659  0.729166666666667 0  1 0  C 1.27083333333333 0  1.50520833333333 0.0680338541666659  1.703125 0.2041015625  L 8.703125 5.0166015625  Z " fill-rule="nonzero" fill="#ffffff" stroke="none" transform="matrix(1 0 0 1 45 320 )" />
  </g>
</svg>