<?xml version="1.0" encoding="utf-8"?>
<svg version="1.1" xmlns:xlink="http://www.w3.org/1999/xlink" width="297px" height="167px" xmlns="http://www.w3.org/2000/svg">
  <g transform="matrix(1 0 0 1 -320 -310 )">
    <path d="M 320 310  L 617 310  L 617 477  L 320 477  L 320 310  " fill-rule="nonzero" fill="#cccccc" stroke="none" />
    <path d="M 332 322  L 605 322  L 605 465  L 332 465  L 332 322  " fill-rule="nonzero" fill="#ffffff" stroke="none" />
    <path d="M 486.965 360.1  C 479.951 360.1  474.44 354.589  474.44 347.575  C 474.44 340.561  479.951 335.05  486.965 335.05  C 493.979 335.05  499.49 340.561  499.49 347.575  C 499.49 354.589  493.979 360.1  486.965 360.1  " fill-rule="nonzero" fill="#cccccc" stroke="none" />
    <path d="M 336 461  L 336 386.75  L 402.25 353  L 495 415.454545454545  L 548 373.25  L 601 415.454545454545  L 601 461  L 336 461  " fill-rule="nonzero" fill="#169bd5" stroke="none" />
  </g>
</svg>